<svg width="512" height="512" xmlns="http://www.w3.org/2000/svg" t="1673690684262" class="icon" version="1.1" p-id="3569">
 <g id="Layer_1">
  <title>Layer 1</title>
  <g>
   <path d="m150,0l212,0c82.843,0 150,67.157 150,150l0,212c0,82.843 -67.157,150 -150,150l-212,0c-82.843,0 -150,-67.157 -150,-150l0,-212c0,-82.843 67.157,-150 150,-150z" fill="rgb(180, 180, 180)" fill-rule="evenodd"/>
  </g>
  <path id="svg_1" d="m256,69.39828c107.96224,0 195.48718,83.54411 195.48718,186.6014s-87.52494,186.6014 -195.48718,186.6014a201.79608,201.79608 0 0 1 -96.93498,-24.52476l-48.48082,21.09484a17.77156,17.77156 0 0 1 -24.3737,-20.41064l12.39566,-52.07068c-23.94718,-30.96694 -38.09334,-69.25578 -38.09334,-110.69017c0,-103.05729 87.52494,-186.6014 195.48718,-186.6014l0,0.00001zm0,26.65734c-93.51396,0 -168.82984,71.88597 -168.82984,159.94406c0,33.14396 10.64516,64.7418 30.22054,91.33694l2.30142,3.04783l7.79283,10.07648l-11.23163,47.16572l44.14456,-19.19329l11.44488,6.25559c25.36891,13.85293 54.15884,21.25479 84.15723,21.25479c93.51396,0 168.82984,-71.88597 168.82984,-159.94406s-75.31588,-159.94406 -168.82984,-159.94406l0.00001,0zm-65.68369,142.17249a17.77156,17.77156 0 1 1 0,35.54313a17.77156,17.77156 0 0 1 0,-35.54313zm66.23461,0a17.77156,17.77156 0 1 1 0,35.54313a17.77156,17.77156 0 0 1 0,-35.54313zm66.22572,0a17.77156,17.77156 0 1 1 0,35.54313a17.77156,17.77156 0 0 1 0,-35.54313z" fill="#333333" p-id="3570" stroke="null"/>
 </g>

</svg>